<svg width="20" height="20" viewBox="0 0 20 20" fill="none" xmlns="http://www.w3.org/2000/svg">
<path d="M15.8333 11.6666V14.1666H18.3333V15.8333H15.8324L15.8333 18.3333H14.1666L14.1658 15.8333H11.6666V14.1666H14.1666V11.6666H15.8333ZM16.8687 3.96447C18.754 5.85367 18.8189 8.86333 17.0661 10.8267L15.8832 9.645C16.9916 8.37492 16.9333 6.38323 15.689 5.14175C14.4368 3.89243 12.4228 3.83918 11.114 5.01407L10.0014 6.0127L8.88825 5.01484C7.57565 3.83831 5.56239 3.89007 4.30948 5.14298C3.06803 6.38443 3.0057 8.37275 4.14978 9.686L11.1765 16.7242L9.99975 17.9042L2.93432 10.8275C1.18071 8.86417 1.24626 5.84918 3.13097 3.96447C5.01781 2.07763 8.03749 2.01406 10.0007 3.77378C11.9582 2.01667 14.9832 2.075 16.8687 3.96447Z" fill="#F9F9F9"/>
</svg>
